<?xml version="1.0" standalone="no"?>
<!DOCTYPE svg PUBLIC "-//W3C//DTD SVG 20010904//EN"
 "http://www.w3.org/TR/2001/REC-SVG-20010904/DTD/svg10.dtd">
<svg version="1.0" xmlns="http://www.w3.org/2000/svg"
 width="3360.000000pt" height="3360.000000pt" viewBox="0 0 3360.000000 3360.000000"
 preserveAspectRatio="xMidYMid meet">
<metadata>
Created by potrace 1.16, written by Peter Selinger 2001-2019
</metadata>
<g transform="translate(0.000000,3360.000000) scale(0.100000,-0.100000)"
fill="#000000" stroke="none">
<path d="M17875 25773 c-714 -28 -1374 -119 -1975 -274 -85 -21 -175 -45 -200
-53 l-45 -13 -6 -769 c-9 -1101 -10 -6495 -2 -8711 l6 -1883 769 0 768 0 0
2455 0 2455 23 -5 c103 -23 464 -53 771 -65 908 -36 1793 102 2461 382 1273
533 1940 1563 1991 3075 7 203 -3 375 -37 608 -93 649 -347 1200 -756 1644
-564 611 -1474 1012 -2558 1126 -233 25 -901 40 -1210 28z m975 -733 c560 -75
999 -247 1351 -527 383 -305 654 -746 783 -1273 69 -282 80 -391 81 -785 0
-289 -3 -371 -18 -470 -28 -182 -64 -333 -122 -511 -285 -868 -948 -1408
-1930 -1574 -440 -75 -1077 -66 -1510 21 -121 24 -291 75 -301 90 -3 6 -3
1113 1 2459 l7 2447 102 32 c170 52 400 90 676 111 204 15 703 4 880 -20z"/>
<path d="M7589 22913 c-523 -1572 -1114 -3340 -1311 -3930 l-360 -1071 -131
92 c-957 671 -2125 1378 -3372 2041 -437 233 -1337 680 -1633 811 l-52 24 3
-7773 c3 -7275 4 -7780 20 -7902 38 -289 90 -590 128 -738 l12 -48 651 648
c761 758 1131 1113 1671 1603 2079 1887 4133 3348 6390 4545 352 187 987 501
1340 664 160 73 294 137 299 141 10 10 -84 225 -205 470 -670 1359 -1790 2715
-3334 4039 -163 140 -559 467 -611 505 -15 11 -9 37 71 299 l88 287 2052 0
2052 0 202 -662 c111 -365 354 -1162 540 -1773 l338 -1110 767 -3 c613 -2 767
0 764 10 -3 7 -882 2640 -1953 5851 l-1948 5837 -763 0 -762 0 -953 -2857z
m2586 -1410 c476 -1564 865 -2845 865 -2848 0 -3 -781 -5 -1736 -5 -1649 0
-1736 1 -1732 18 22 81 1734 5689 1735 5684 1 -4 392 -1286 868 -2849z"/>
<path d="M24640 19920 l0 -5850 745 0 745 0 0 5850 0 5850 -745 0 -745 0 0
-5850z"/>
<path d="M26760 13750 c-3220 -52 -6257 -488 -9085 -1305 -2619 -756 -5073
-1838 -7371 -3251 -1650 -1014 -3216 -2191 -4869 -3659 -450 -400 -666 -597
-1515 -1385 -850 -790 -1224 -1120 -1526 -1347 -63 -47 -112 -88 -110 -90 3
-3 49 6 103 21 54 14 213 53 353 86 1792 428 3489 659 5290 721 433 15 1579 6
1975 -15 1939 -104 3679 -390 5450 -895 1593 -454 3174 -1097 4448 -1807 l167
-94 518 1 517 0 362 387 c3458 3700 6455 6454 9170 8430 681 495 1457 1014
2044 1364 l188 113 1 1196 0 1196 -37 6 c-68 11 -851 95 -1123 122 -1678 160
-3369 230 -4950 205z"/>
</g>
</svg>
