<svg width="24" height="24" viewBox="0 0 24 24" fill="none" xmlns="http://www.w3.org/2000/svg">
<rect width="24" height="24" rx="4" fill="white"/>
<path d="M12 2C6.48 2 2 6.48 2 12C2 17.52 6.48 22 12 22C17.52 22 22 17.52 22 12C22 6.48 17.52 2 12 2ZM12 20C7.59 20 4 16.41 4 12C4 7.59 7.59 4 12 4C16.41 4 20 7.59 20 12C20 16.41 16.41 20 12 20Z" fill="#2c5282"/>
<path d="M12 11C10.9 11 10 11.9 10 13C10 14.1 10.9 15 12 15C13.1 15 14 14.1 14 13C14 11.9 13.1 11 12 11ZM12 17C9.79 17 8 15.21 8 13C8 10.79 9.79 9 12 9C14.21 9 16 10.79 16 13C16 15.21 14.21 17 12 17Z" fill="#2c5282"/>
<path d="M12 6C11.45 6 11 6.45 11 7C11 7.55 11.45 8 12 8C12.55 8 13 7.55 13 7C13 6.45 12.55 6 12 6Z" fill="#2c5282"/>
</svg>
